<svg version="1.2" xmlns="http://www.w3.org/2000/svg" viewBox="0 0 270 105" width="270" height="105">
	<title>Projecte nou</title>
	<style>
		.s0 { fill: #00758d } 
	</style>
	<path id="Path 0" fill-rule="evenodd" class="s0" d="m64.1 10.1c1.3 0 2.8 0.1 3.5 0.2 0.7 0.2 1.9 0.5 2.6 0.7 0.8 0.3 1.9 0.7 2.5 1 0.6 0.3 1.7 0.9 2.5 1.4 0.9 0.6 2.1 1.6 2.9 2.4 0.8 0.8 1.8 2 2.3 2.7 0.4 0.7 1.1 1.8 1.4 2.5 0.3 0.6 0.7 1.7 0.9 2.4 0.3 0.7 0.6 1.7 0.7 2.3 0.1 0.7 0.3 1.9 0.4 2.9 0.1 1.1 0.1 2.3 0 3.5-0.1 0.9-0.3 2.3-0.4 2.9-0.1 0.6-0.4 1.6-0.6 2.3-0.2 0.6-0.6 1.6-0.9 2.2-0.3 0.6-0.8 1.6-1.3 2.3-0.4 0.6-1.1 1.6-1.6 2.1-0.4 0.5-1.2 1.3-1.7 1.7-0.5 0.4-1.3 1.1-1.8 1.4-0.6 0.4-1.5 0.9-2.2 1.3-0.7 0.3-1.9 0.8-2.7 1.1-0.8 0.2-2.1 0.5-2.9 0.7-1.1 0.2-2.1 0.3-4.2 0.3-2.3 0-3.1-0.1-4.3-0.4-0.9-0.2-2.1-0.5-2.8-0.7-0.7-0.3-1.9-0.7-2.5-1.1-0.7-0.3-1.7-0.9-2.3-1.3-0.6-0.4-1.6-1.3-2.3-1.9-0.7-0.7-1.6-1.7-2.1-2.3-0.4-0.6-1.1-1.7-1.5-2.5-0.4-0.8-1-2.1-1.2-2.9-0.3-0.7-0.6-2.1-0.8-3-0.2-1.1-0.3-2.3-0.3-3.9 0-1.3 0.1-2.9 0.3-3.6 0.1-0.7 0.3-1.9 0.6-2.6 0.2-0.7 0.5-1.8 0.8-2.4 0.2-0.5 0.7-1.5 1.1-2.2 0.4-0.6 1.1-1.7 1.7-2.4 0.5-0.7 1.5-1.7 2.1-2.2 0.6-0.6 1.6-1.3 2.2-1.7 0.6-0.4 1.6-1 2.2-1.3 0.7-0.3 1.8-0.7 2.6-1 0.7-0.2 1.9-0.5 2.6-0.6 0.7-0.2 1.5-0.3 1.7-0.3 0.3-0.1 1.6-0.1 2.8 0zm-5.5 15.4c-2.4 2.5-3.5 3.8-3.6 4.1 0 0.2-0.1 0.7 0 1 0.1 0.7 0.2 0.9 3.7 4.3 2 2 3.8 3.7 4 3.8 0.2 0.2 0.6 0.2 0.9 0.2q0.6 0 1.2-0.4c0.4-0.2 2.2-1.9 4-3.7 2.8-2.9 3.3-3.4 3.4-4q0.2-0.6 0.1-1.1c-0.1-0.5-0.9-1.3-3.9-4.2-2-2.1-3.8-3.8-4-3.9-0.1 0-0.5-0.1-0.8-0.1-0.2 0-0.7 0.1-0.9 0.2-0.4 0.1-1.6 1.2-4.1 3.8zm43.4-15.5c0.9 0 2.3 0.1 3.2 0.2 0.8 0.1 1.9 0.3 2.4 0.4 0.5 0.2 1.5 0.4 2.1 0.6 0.7 0.2 2 0.8 3 1.3 1.3 0.7 1.8 1 1.7 1.1 0 0.1-0.9 2.4-1.9 5-1 2.7-1.8 4.9-1.9 4.9 0 0-0.5-0.3-1.2-0.7-0.7-0.4-1.7-0.9-2.3-1.2-0.5-0.2-1.4-0.5-1.9-0.7q-1-0.2-2.6-0.2c-1.4 0-1.7 0-2.2 0.3-0.4 0.3-0.7 0.6-0.9 0.9-0.1 0.2-0.2 0.6-0.2 0.8 0 0.2 0.1 0.5 0.3 0.6 0.1 0.2 0.4 0.5 0.6 0.6 0.3 0.1 1.9 0.6 3.6 0.9 1.7 0.4 3.5 0.9 4.1 1.1 0.6 0.2 1.6 0.7 2.2 1 0.6 0.3 1.5 0.9 2 1.3 0.6 0.4 1.3 1.2 1.7 1.7 0.3 0.5 0.8 1.2 0.9 1.6 0.2 0.3 0.5 1.1 0.7 1.7 0.1 0.6 0.3 1.7 0.3 2.6 0.1 1.2 0 2-0.1 3-0.2 0.7-0.5 1.9-0.7 2.5-0.3 0.7-0.8 1.7-1.2 2.2-0.3 0.6-1.2 1.6-1.9 2.2-0.6 0.7-1.7 1.5-2.3 1.9-0.6 0.3-1.6 0.9-2.3 1.2-0.7 0.3-2 0.7-2.8 0.9-0.9 0.2-2.3 0.5-3.2 0.6-0.9 0.1-2.3 0.2-3.6 0.1-1.2-0.1-2.9-0.2-3.9-0.4-0.9-0.2-2.3-0.4-3-0.6-0.6-0.2-1.9-0.5-2.7-0.8-0.9-0.3-2.2-0.8-2.9-1.1-0.7-0.3-1.3-0.6-1.3-0.7 0-0.1 0.9-2.6 2.1-5.6 1.2-3 2.1-5.4 2.2-5.4 0 0 0.5 0.3 1.1 0.7 0.6 0.5 1.6 1.1 2.3 1.5 0.7 0.4 1.9 1 2.7 1.2 1 0.4 1.8 0.5 2.8 0.6 1.1 0 1.6 0 2.3-0.2q0.8-0.2 1.4-0.8c0.4-0.4 0.5-0.6 0.5-1.2 0-0.5-0.1-0.8-0.3-1.1q-0.4-0.5-1.2-0.7c-0.4-0.1-1.8-0.4-3.2-0.6-1.4-0.3-3.1-0.7-3.8-0.9-0.7-0.3-1.7-0.7-2.2-1-0.6-0.2-1.4-0.8-2-1.3-0.5-0.4-1.2-1.1-1.5-1.5-0.3-0.5-0.8-1.2-1-1.7-0.3-0.6-0.6-1.5-0.7-2.1-0.2-0.8-0.3-1.5-0.2-2.9 0.1-1.4 0.2-2.1 0.5-3.1 0.2-0.7 0.5-1.7 0.8-2.2 0.3-0.5 0.7-1.2 0.9-1.5 0.2-0.4 0.9-1.1 1.4-1.7 0.5-0.5 1.3-1.3 1.8-1.6 0.4-0.3 1.1-0.8 1.6-1.1 0.5-0.3 1.5-0.8 2.1-1.1 0.7-0.2 1.8-0.6 2.4-0.8 0.6-0.1 1.6-0.4 2.4-0.5 0.7-0.1 2-0.2 3-0.2zm35.9 0.1c1.3 0 3 0.1 3.8 0.2 0.7 0.2 2 0.4 2.8 0.6 0.7 0.2 1.5 0.4 2.1 0.7v7.1c0 3.9 0 7.1 0 7.2-0.1 0-0.6-0.3-1.2-0.7-0.5-0.4-1.4-1-2-1.3-0.5-0.3-1.3-0.6-1.9-0.8-0.5-0.2-1.4-0.3-2-0.4-0.8-0.1-1.4 0-2.2 0.1-0.6 0.2-1.5 0.5-2 0.7-0.6 0.3-1.3 0.9-1.9 1.4-0.5 0.5-1 1.2-1.3 1.8-0.3 0.5-0.6 1.3-0.7 1.7-0.1 0.5-0.2 1.3-0.2 1.8 0 0.5 0.1 1.4 0.2 1.8 0.2 0.5 0.5 1.3 0.7 1.8 0.3 0.4 0.9 1.2 1.4 1.7 0.6 0.6 1.2 1 2 1.4 0.6 0.3 1.6 0.7 2.2 0.7 0.6 0.2 1.5 0.2 2.2 0.1 0.7 0 1.8-0.2 2.4-0.4 0.6-0.2 1.4-0.6 1.7-0.8 0.4-0.2 1.1-0.6 1.5-1 0.5-0.3 1-0.6 1-0.6 0.1 0 0.1 3.1 0.1 14.1l-0.9 0.3c-0.5 0.1-1.4 0.4-2.1 0.5-0.6 0.1-1.7 0.3-2.4 0.4-0.6 0-2.2 0.1-3.4 0.2-1.8 0.1-2.7 0-4-0.2-0.9-0.1-2.2-0.4-2.9-0.6-0.7-0.2-1.7-0.5-2.2-0.8-0.6-0.2-1.6-0.7-2.3-1.1-0.7-0.4-1.6-1-2-1.4-0.5-0.3-1.3-1.1-1.9-1.6-0.6-0.6-1.4-1.6-1.9-2.3-0.5-0.7-1.3-2-1.8-2.9-0.4-1-1-2.4-1.2-3.1-0.2-0.7-0.5-1.9-0.6-2.6-0.1-0.7-0.2-2.2-0.2-3.3 0-1.2 0.1-2.5 0.3-3.5 0.1-0.9 0.5-2.4 0.8-3.2 0.3-0.8 0.8-2.1 1.2-2.9 0.4-0.8 1.1-1.9 1.6-2.5 0.5-0.7 1.4-1.7 2.1-2.4 0.7-0.7 1.8-1.7 2.4-2.1 0.6-0.5 1.7-1.1 2.4-1.5 0.6-0.4 1.7-0.9 2.4-1.1 0.6-0.2 1.6-0.5 2.1-0.7 0.5-0.1 1.5-0.3 2.2-0.4 0.8-0.1 2-0.2 3.6-0.1zm-34.1 43.6c1.2 0 2.7 0.2 3.5 0.3 0.7 0.1 2 0.4 2.9 0.7 0.9 0.3 2.4 0.9 3.4 1.3 1 0.5 1.9 1 1.9 1.1 0.1 0-0.7 2.3-1.8 5.1-1 2.7-1.9 4.9-1.9 4.9-0.1 0.1-0.6-0.2-1.3-0.6-0.7-0.4-1.7-1-2.3-1.2-0.6-0.3-1.5-0.6-2-0.7-0.5-0.1-1.4-0.2-2.4-0.2-1.5-0.1-1.7 0-2.3 0.3-0.3 0.2-0.7 0.5-0.8 0.8-0.1 0.2-0.2 0.6-0.2 0.8 0 0.2 0.1 0.5 0.2 0.7 0.1 0.2 0.5 0.4 0.8 0.6 0.3 0.1 0.8 0.3 1 0.4 0.3 0 1.7 0.3 3.1 0.7 1.4 0.3 3.2 0.8 4 1.1 0.8 0.3 1.9 0.9 2.5 1.3 0.6 0.4 1.5 1.1 2 1.6 0.5 0.4 1.1 1.2 1.4 1.8 0.3 0.5 0.7 1.3 0.8 1.8 0.2 0.6 0.4 1.4 0.5 1.9 0.1 0.6 0.1 1.4 0.1 1.9 0 0.6-0.1 1.6-0.2 2.3-0.1 0.7-0.4 1.9-0.7 2.5-0.2 0.7-0.7 1.7-1.1 2.3-0.4 0.6-1.2 1.5-1.9 2.2-0.7 0.6-1.7 1.5-2.4 1.9-0.6 0.4-1.7 0.9-2.5 1.2-0.7 0.3-1.8 0.7-2.4 0.9-0.7 0.1-1.8 0.4-2.6 0.5-0.7 0.1-2.2 0.2-3.3 0.2-1.1 0-2.7-0.1-3.6-0.2-1-0.1-2.5-0.4-3.4-0.6-0.9-0.2-2.5-0.7-3.6-1-1-0.4-2.4-0.9-3.1-1.2-0.6-0.3-1.2-0.6-1.2-0.7 0-0.1 1-2.6 2.1-5.6 1.2-2.9 2.2-5.3 2.2-5.4 0.1 0 0.4 0.2 0.7 0.5 0.3 0.3 1.1 0.8 1.6 1.1 0.5 0.4 1.5 0.9 2.2 1.3 0.8 0.3 1.9 0.7 2.6 0.9 0.7 0.1 1.7 0.3 2.3 0.3 0.6 0 1.4-0.1 1.9-0.2 0.4-0.2 1-0.5 1.2-0.7 0.4-0.4 0.6-0.7 0.6-1.1q0.1-0.6-0.1-1c-0.2-0.3-0.5-0.6-0.9-0.8-0.3-0.2-1.8-0.5-3.3-0.8-1.6-0.3-3.3-0.7-3.9-0.9-0.7-0.2-1.6-0.5-2.1-0.8-0.5-0.2-1.2-0.7-1.7-1-0.4-0.3-1.2-1-1.7-1.5-0.6-0.6-1.1-1.5-1.4-2.1-0.3-0.5-0.6-1.4-0.8-2-0.1-0.6-0.2-1.6-0.2-2.5 0-0.9 0.1-2.1 0.3-2.7 0.1-0.7 0.4-1.7 0.6-2.3 0.3-0.6 0.8-1.5 1.1-2.1 0.4-0.6 1.1-1.5 1.7-2 0.5-0.6 1.3-1.3 1.7-1.6 0.5-0.4 1.2-0.9 1.7-1.2 0.5-0.3 1.4-0.7 2.1-1 0.7-0.3 1.9-0.7 2.8-0.9 0.8-0.2 2-0.4 2.5-0.5 0.6-0.1 2-0.1 3.1-0.1zm35.3 0c1.3 0.1 3 0.2 4 0.4 0.9 0.1 2.2 0.4 2.7 0.6 0.6 0.1 1.2 0.3 1.9 0.5v7.1c0 3.9-0.1 7.1-0.2 7.1 0 0.1-0.6-0.3-1.2-0.7-0.6-0.5-1.5-1-2.1-1.3-0.5-0.3-1.4-0.6-1.9-0.7-0.6-0.2-1.5-0.3-2.3-0.3-0.9 0-1.6 0.1-2.3 0.3-0.6 0.2-1.5 0.6-2 0.9-0.5 0.4-1.2 1-1.5 1.4-0.4 0.4-0.8 1.1-1 1.5-0.2 0.4-0.5 1-0.6 1.5-0.1 0.4-0.2 1.3-0.2 1.9 0 0.6 0.1 1.4 0.2 1.8 0.1 0.4 0.4 1.1 0.6 1.7 0.3 0.5 0.9 1.3 1.3 1.7 0.5 0.5 1.3 1.1 1.9 1.4 0.5 0.2 1.5 0.6 2 0.7 0.8 0.2 1.4 0.3 2.4 0.2 0.9-0.1 1.8-0.2 2.6-0.4 0.6-0.3 1.5-0.7 2-0.9 0.5-0.3 1.1-0.8 1.4-1 0.3-0.2 0.6-0.4 0.7-0.4 0.1 0 0.2 2.4 0.2 7 0 6.5-0.1 7-0.3 7.1-0.1 0-0.7 0.2-1.1 0.3-0.5 0.2-1.8 0.4-2.9 0.6-1.1 0.1-3.1 0.3-4.6 0.4-2.2 0-2.8 0-4.3-0.3-1-0.1-2.4-0.5-3.1-0.7-0.8-0.3-2.1-0.8-2.9-1.2-0.8-0.4-2-1.2-2.6-1.6-0.6-0.5-1.7-1.5-2.4-2.1-0.7-0.7-1.7-2-2.2-2.8-0.6-0.8-1.2-1.9-1.5-2.5-0.3-0.6-0.7-1.7-0.9-2.5-0.3-0.7-0.6-2-0.7-2.9-0.2-1.2-0.3-2-0.2-4 0.1-1.7 0.2-2.9 0.4-3.7 0.1-0.7 0.4-1.8 0.7-2.4 0.2-0.6 0.7-1.8 1-2.5 0.4-0.7 1-1.7 1.4-2.3 0.3-0.6 1.1-1.5 1.5-2 0.5-0.6 1.4-1.4 1.9-1.9 0.6-0.5 1.5-1.2 2.2-1.6 0.6-0.5 1.7-1.1 2.5-1.5 0.8-0.3 2.1-0.8 2.9-1.1 0.9-0.2 2.2-0.5 3-0.6q1.5-0.2 3.6-0.2zm-118.8 0.6c8.8 0 10.4 0.1 11.5 0.3 0.7 0.1 1.7 0.3 2.2 0.5 0.5 0.2 1.5 0.6 2.2 0.9 0.8 0.4 1.8 1 2.3 1.5 0.5 0.4 1.2 1.1 1.6 1.6 0.4 0.5 1 1.5 1.4 2.2 0.3 0.7 0.7 1.8 0.9 2.4 0.2 0.6 0.4 1.6 0.5 2.3 0.1 0.8 0.1 2.1 0.1 3.5-0.1 1.8-0.2 2.6-0.5 3.7-0.2 0.8-0.6 2-0.9 2.6-0.4 0.7-0.9 1.6-1.3 2-0.3 0.5-1 1.2-1.5 1.5-0.4 0.4-1.3 0.9-1.8 1.2-0.6 0.3-1.6 0.6-2.3 0.8-1.1 0.3-1.6 0.3-10.9 0.4v11.8l-13.8-0.1v-19.4c0-10.7 0-19.5 0.1-19.6 0-0.2 1.9-0.2 10.2-0.1zm145.6 0l0.1 12.4c0 10.2 0.1 12.6 0.3 13 0.1 0.3 0.3 0.7 0.5 1 0.3 0.3 0.7 0.6 1.1 0.8 0.5 0.2 0.9 0.3 2 0.2 1 0 1.6-0.1 2-0.3 0.3-0.2 0.7-0.6 0.9-0.8 0.2-0.3 0.4-0.8 0.5-1 0.1-0.4 0.2-3.6 0.3-25.3h14.3v12.7c0 11.7 0 12.9-0.3 14.2-0.1 0.7-0.4 1.8-0.5 2.4-0.2 0.5-0.5 1.4-0.8 1.9-0.2 0.5-0.7 1.4-1 1.9-0.4 0.5-1 1.4-1.5 1.8-0.5 0.5-1.2 1.2-1.7 1.5-0.4 0.3-1.2 0.8-1.7 1.1-0.5 0.3-1.4 0.7-2 0.9-0.5 0.2-1.5 0.5-2.1 0.7-0.7 0.1-2 0.4-2.9 0.5-1.2 0.2-2.3 0.2-4.4 0.2-1.7-0.1-3.3-0.2-4.1-0.4-0.7-0.1-1.9-0.4-2.5-0.6-0.7-0.2-1.8-0.6-2.5-0.9-0.6-0.3-1.4-0.7-1.8-1-0.4-0.3-1.1-0.8-1.6-1.2-0.4-0.3-1.1-1.1-1.6-1.7-0.5-0.6-1.2-1.8-1.6-2.6-0.4-0.8-0.8-2-1-2.8-0.2-0.8-0.5-2.1-0.6-2.9-0.1-0.9-0.1-5.9-0.1-13.5-0.1-6.7 0-12.1 0.1-12.2 0 0 3.3-0.1 14.2 0zm67.3-0.1l14.2 0.1 0.1 26.6h11.9v12.6h-26.2zm-213.4-43.6c8.3 0.1 9.8 0.1 11 0.3 0.7 0.1 2 0.5 2.7 0.7 0.7 0.2 1.7 0.7 2.2 1 0.6 0.3 1.4 1 1.9 1.5 0.5 0.5 1.1 1.3 1.4 1.8 0.3 0.6 0.6 1.5 0.8 2.2 0.3 0.9 0.4 1.5 0.4 3.3 0 2-0.1 2.3-0.4 3.4-0.3 0.6-0.6 1.4-0.8 1.7-0.2 0.3-0.6 0.9-1 1.3-0.3 0.4-1 0.9-2.2 1.6l0.7 0.1c0.3 0.1 0.9 0.2 1.2 0.4 0.3 0.1 1 0.5 1.5 0.8 0.5 0.4 1.2 1 1.5 1.4 0.3 0.5 0.7 1.1 0.8 1.4 0.2 0.4 0.5 1.1 0.7 1.8 0.2 0.9 0.3 1.5 0.3 3.4 0 1.8-0.1 2.6-0.3 3.3-0.1 0.5-0.4 1.4-0.7 2-0.3 0.5-0.9 1.4-1.3 1.8-0.4 0.5-1.2 1.2-1.6 1.5-0.5 0.4-1.3 0.8-1.9 1.1-0.5 0.2-1.5 0.6-2.1 0.8-0.7 0.2-1.9 0.4-2.7 0.5-0.9 0.1-4.5 0.2-21.7 0.1v-19.4c-0.1-10.7 0-19.6 0-19.7 0.1-0.1 1.8-0.1 9.6-0.1zm145.2 0v13.2h8.6v-13.2h13.7l0.1 39.3h-13.8v-13.6h-8.6v13.6l-13.8-0.1v-19.4c0-10.7 0-19.6 0-19.7 0.1-0.1 1.6-0.1 13.8-0.1zm-110.4 43.8h15.7l6.8 19.2c3.7 10.5 6.8 19.3 6.9 19.8h-14.9l-1.4-4.1c-0.7-2.3-2.2-6.5-3.3-9.4-1-2.9-2-5.3-2-5.4-0.1-0.2-0.2-0.2-0.2 0-0.1 0.1-1.4 4.1-2.9 8.8-1.5 4.8-2.9 9-3.2 10.1h-7.5c-7.2 0-7.5 0-7.4-0.3 0-0.1 3-8.9 6.7-19.5zm146.5 0l15.6 0.1 6.9 19.2c3.8 10.6 6.9 19.3 6.9 19.5 0 0.2-0.5 0.2-14.9 0.2l-1.3-3.7c-0.6-2.1-2-6-3-8.8-1.1-2.8-2-5.4-2.5-6.8l-6.2 19.2-7.5 0.1c-4.2 0-7.6 0-7.6-0.1 0 0 3-8.6 6.7-19.1 3.6-10.4 6.6-19.2 6.7-19.4z"/>
</svg>