<?xml version="1.0" encoding="utf-8"?>
<!-- Generator: Adobe Illustrator 27.3.1, SVG Export Plug-In . SVG Version: 6.00 Build 0)  -->
<svg version="1.1" id="Capa_1" xmlns="http://www.w3.org/2000/svg" xmlns:xlink="http://www.w3.org/1999/xlink" x="0px" y="0px"
	 viewBox="0 0 280.9 93.2" style="enable-background:new 0 0 280.9 93.2;" xml:space="preserve">
<style type="text/css">
	.st0{fill:#928D1B;}
	.st1{fill:#9E3223;}
</style>
<g>
	<path class="st0" d="M52.6,71.2c0.1,0,0.3,0,0.4-0.1C52.8,71.1,52.7,71.1,52.6,71.2z"/>
	<path class="st0" d="M234.4,78.1c4.2-1.1,7.8-2.6,11.5-3.5c-0.8-2.4-1.5-5.3-8.2-6c-1-0.1-2-0.1-3.1-0.1c-1.5-0.4-3-0.7-4.8-1.1
		c-2.2,0.8-5.6,1.2-8.9,1.5c-0.2-0.1-0.4-0.2-0.7-0.2c-0.6,0.2-1.5,0.3-2.3,0.5c-1,0.1-2,0.1-2.8,0.2c-9.6-0.9-18.4-0.7-27.1-0.5
		c-6.8,0.1-13.8,0.9-20.3,1.9c-1-0.8-2.7-1.8-5.1-1.9c-6.8-0.3-15.9-1.1-20.8,1.4c-2.2-0.9-4.7-0.9-6-0.5c-1.7,0.5-3.6,0.8-5.4,0.9
		c-4.3-0.3-8.8-0.7-12.9-0.3c0,0,0.1,0,0.1,0c-2.7-0.2-5.3-0.4-7.8-0.4c-5,0.3-10.5-0.4-14.2,0c-2.9,0.5-5.5,0.5-7.9,0.5
		c0,0,0,0,0,0l0,0c-0.7,0-1.4,0-2.2,0c-2.7-0.5-6-0.7-6.8-1.5c-1.2,0.9,1.1,0.9,3,1c-2.2,0-4.8,0.2-7.2,0.1c0.9-0.1,1.6-0.5,2.7,0
		c0.6-0.3,0.3-0.6-0.3-0.8c-2.2,0.2-6.2-0.5-6.5,0.3c-0.4-0.1-0.8-0.3-1.2-0.5l-1.1,0.6l0,0.1c-2.8,0.1-5.9-0.2-8.1,0.4
		c0.2,0.1,0.4,0.1,0.5,0.2c-0.2-0.1-0.4-0.1-0.5-0.2c-0.7,0.6-0.9,0.9-0.9,1.1c-1.1,0.4-2.1,0.7-2.4,0.6c-1.6-0.3-3-0.6-4.3-0.8
		c0,0,0.1,0,0.1,0c0,0-0.1,0-0.2,0c-3.8-0.8-6.4-1.5-10.9-2.1c-0.3-0.1-1.2,0.2-2.1,0.5c-0.1,0-0.1,0-0.2,0c-0.7,0.2-1,0.5-1.2,0.7
		c-0.3,0.2-0.5,0.3-0.5,0.4c0.6,0.7,2.1,1.2,3.7,1.7l-0.4,0l0.2,0.1c0.1,0,0.2,0,0.2-0.1c1.3,0.4,2.7,0.7,3.7,1.1
		c0.6,0.6,1,0.9,1.7,1.4c1.1,0.8-1.5,1.2-2.1,1.4c3.8,2.7,13.8,0.7,21.8,1.1c1.2,0,2-1,3.3-0.9c0.6,0.2,1.2,0.4,1.7,0.6
		c1.2,0,3.1-0.1,3.7,0.1c4.6,1.7,13.5,0.7,18.9,1.4c3.6,0.5,7.4,0.1,11.6,0.8c3.6,0.9,9.2,0.4,14.2,0.5c0.7-0.2,1.3-0.4,2-0.6
		c1.9-0.2,4.9,0.5,5.5,0.3c7-0.9,13.7-0.1,19.3-0.6c8.6-0.4,17.1-0.2,25-0.9l0.5,0.5c0.9-0.3,1.8-0.4,1.9-0.7
		c0.4-0.1,0.9-0.1,1.3-0.2c1.3,0.2,2.5,0.1,3.3-0.5c1,0.2,0.4,0.4,0.9,0.6c1.5-0.2,3.2-0.3,4.9-0.3c0.5,0.2,1.3,0.3,2.8,0.3l0-0.2
		c5.2,0.3,10.2,1.3,12.9,2.6c2.8-1.6,6.3-0.3,9.5-0.8c3.8-0.3,8.3-1.2,11.3-0.6c4.8,0.8,8.9,0.4,12.6-0.4c0.1,0,0.3,0,0.4,0
		C234.1,78.2,234.2,78.2,234.4,78.1z"/>
</g>
<g>
	<path class="st1" d="M42.5,15.6h19.7c5.5,0,9.7,1.5,12.5,4.4c2.4,2.4,3.7,5.8,3.7,9.8v0.1c0,6.9-3.7,11.3-9.2,13.3l10.5,15.4H68.6
		l-9.2-13.8h-0.1h-7.3v13.8h-9.5V15.6z M61.5,36.5c4.6,0,7.2-2.5,7.2-6.1v-0.1c0-4.1-2.8-6.1-7.4-6.1h-9.4v12.3H61.5z"/>
	<path class="st1" d="M81.9,43v-0.1c0-9,6.7-16.5,16.3-16.5c11,0,16,8.2,16,17.2c0,0.7-0.1,1.5-0.1,2.4H91.2c0.9,4.1,3.9,6.2,8,6.2
		c3.1,0,5.4-0.9,8-3.2l5.3,4.5c-3.1,3.7-7.5,5.9-13.5,5.9C89.2,59.4,81.9,52.7,81.9,43z M105.2,40.4c-0.6-4-3-6.7-6.9-6.7
		c-3.9,0-6.4,2.7-7.1,6.7H105.2z"/>
	<path class="st1" d="M120.3,37.3v-0.1c0-12.2,9.2-22.2,22.4-22.2c8.1,0,13,2.7,17,6.6l-6,6.9c-3.3-3-6.7-4.9-11-4.9
		c-7.3,0-12.5,6-12.5,13.4v0.1c0,7.4,5.1,13.5,12.5,13.5c4.9,0,7.9-2,11.3-5l6,6.1c-4.4,4.7-9.3,7.7-17.6,7.7
		C129.7,59.4,120.3,49.6,120.3,37.3z"/>
	<path class="st1" d="M183.7,15.1c-13.2,0-22.8,10-22.8,22.1v0.1c0,12.2,9.5,22,22.7,22s22.8-10,22.8-22.1v-0.1
		C206.3,25,196.8,15.1,183.7,15.1z M199.5,37.2c0,8.5-6.7,15.5-16,15.5c-9.3,0-15.9-6.9-15.9-15.4v-0.1c0-8.5,6.7-15.5,16-15.5
		S199.5,28.6,199.5,37.2L199.5,37.2z"/>
	<g>
		<path class="st0" d="M171.9,43c0,0.1,0,0.2,0.1,0.2C172,43.2,172,43.1,171.9,43z"/>
		<path class="st0" d="M176,48l0.6,0.4l-0.7-0.6C175.9,47.9,176,47.9,176,48z"/>
		<path class="st0" d="M180.8,49.7c-0.1,0.1-0.3,0-0.3,0.2c-0.3-0.1-0.2-0.2-0.3-0.3c-0.5,0-1.2-0.3-1.5-0.3c0.2,0,0.2,0.1,0.3,0.1
			c0.7,0.4,1.7,0.4,2.1,0.8C181,50,181.5,49.9,180.8,49.7z"/>
		<path class="st0" d="M177.7,49.1c0.3,0,0.7,0.4,1,0.5l0.2-0.1C178.1,49.4,178.2,48.8,177.7,49.1z"/>
		<path class="st0" d="M192.6,47c0.1,0,0.2,0,0.4-0.3C192.9,46.7,192.8,46.9,192.6,47z"/>
		<path class="st0" d="M189.6,49.1L189.6,49.1L189.6,49.1C189.6,49.2,189.6,49.1,189.6,49.1z"/>
		<path class="st0" d="M170.7,38.3L170.7,38.3l0-0.4C170.6,38,170.6,38.2,170.7,38.3z"/>
		<path class="st0" d="M195.3,34.2C195.3,34.2,195.3,34.2,195.3,34.2L195.3,34.2z"/>
		<path class="st0" d="M195.1,37.4l0,0.3c0,0-0.1,0-0.2,0.1c0-0.1,0-0.3,0-0.4v-0.1c0-3.2-1.1-6.1-2.9-8.3c0.4,0.5,0.9,1.1,1.3,1.8
			c0.9,1.5,1.4,3.1,1.5,2.8c0,0.1-0.3-1.1-0.9-2.2c-0.1-0.1-0.1-0.3-0.2-0.4l0.1,0c0.2,0.3,0.5,0.9,0.8,1.5c0.3,0.8,0.6,1.6,0.6,1.7
			c0,0,0-0.1,0-0.1c0.3,0,0.2,0.5,0.5,0.5c0.4,1.2,0.3,2,0.3,2.8c0.4-1.7,0.3-3.9-0.6-6c-0.2-0.2-0.3-0.4-0.2,0
			c0.4,0.5,0.3,0.8,0,0.5c-0.3-0.5,0.2,0-0.2-0.6l0.1,0.3c-0.3-0.6-0.5-0.9-1-1.1c-0.5-1.2-1.5-2.3-2.5-3.1c-1-0.8-2.1-1.5-3.1-2.2
			c-0.3,0-0.6-0.1-0.8,0c0-0.1,0-0.3-0.4-0.4c0.1,0.1,0.3,0.2,0.3,0.2c-0.5-0.2-1.1-0.4-1.7-0.5l0.1,0.2c-0.5-0.3-1.5-0.2-2.1-0.5
			c0,0.1-0.4,0.1-0.4,0.3c-1.7-0.4-3.5,0.3-5,0.5c0.2,0.1,0,0.2,0,0.2c-0.5,0.2-0.2-0.1-0.3-0.1c0,0.4-1.8,1-3.4,2.2
			c-1.6,1.2-2.9,2.9-2.9,3.4c0.1-0.1,0.2-0.2,0.2-0.2c-1.3,2.3-1.9,5.2-1.6,7.7c0-0.4,0.1-0.4,0.3-0.4c0,0.2,0,0.4,0,0.7
			c0-0.1-0.1-0.3-0.2,0.1c0,0.5,0.2,0.9,0.3,1.3c-0.1-0.5-0.1-0.7,0-0.9c0,0.4,0.1,0.7,0.1,1.1c-0.1,0.2-0.1,0.4-0.2,0.4
			c0.4-0.1,0.3,0.9,0.5,1.3l0.2,0.1c0.1,0.3,0.2,0.5,0.3,0.8c-0.1-0.1-0.2-0.3-0.2-0.4c-0.1,0.4,0.2,0.7,0.3,1.1
			c0-0.2,0-0.3,0.1-0.1c0,0.7,0.5,0.8,0.7,1.4l-0.4-0.4c-0.2,0.2,0.8,0.8,0.5,1.1c0.5,0.3,0.3-0.1,0.4-0.2c0.2,0.2,0.4,0.5,0.5,0.7
			c0,0,0,0,0,0c0,0,0,0,0,0c0.2,0.2,0.4,0.4,0.5,0.6c-0.1,0-0.2,0-0.3-0.1c-0.1-0.1-0.3-0.4-0.2-0.5c-0.1,0-0.3-0.1-0.3,0.1
			c0.3,0.5,1,1.2,1.3,1c0,0,0,0,0,0c0.2,0.2,0.3,0.3,0.5,0.5c-0.2,0-0.5,0-0.8-0.3c0.1,0.3,0.3,0.3,0.5,0.5l0.5,0l-0.2-0.1l0.1-0.1
			c2,1.6,4.5,2.6,7.4,2.7c-0.1,0-0.1,0-0.1,0.1c0.4,0.3,1.4,0.1,1.6,0.3c0.1-0.1-0.3-0.1,0.1-0.3c0.6,0,0.5,0.1,0.8,0.2l0.3-0.2
			c0.1,0.3,0.6,0.1,1.2-0.1c-0.7,0.1-1.5,0.1-2.2,0.1c1-0.4,2-0.2,3-0.6c0.4-0.4-0.5,0.1-0.6,0c0,0,0,0,0,0c0.2-0.1,0.3-0.1,0.5-0.2
			c0,0,0,0,0.1,0c0.2-0.1,0.3-0.1,0.5-0.2c0,0,0,0,0,0c0,0,0,0,0,0c0.1,0,0.1-0.1,0.2-0.1c0.1,0.1,0.3,0.4,0.5,0.3l0.7,0
			c-0.2-0.4,0.8-0.7,1.1-0.9c0,0,0,0,0,0.1c-0.1,0.1-0.1,0.1,0,0c-0.1,0.3-0.2,0.5-0.7,0.6c-0.4,0.3-0.8,0.5-1.2,0.7
			c0.3,0.1,0.6,0.2,1.1-0.1c-0.5,0.2,0.2-0.3-0.2-0.2c0.3-0.4,1.2-0.3,1.8-1c-0.2,0.2-0.2,0-0.1-0.1c0.5-0.3,1.2-1,1.6-1.4
			c0,0-0.1,0-0.1-0.1c0.4-0.3,0.5-0.4,1-0.8c0.8-0.8,1.4-1.9,1.9-3.1c0.4-1.2,0.8-2.3,1.1-3.2c0.3-0.6,0.1,0.6,0.3,0.4
			C196.6,37.6,195.8,37.1,195.1,37.4z M191.2,27.8L191.2,27.8c-0.1,0-0.2-0.1-0.3-0.1C191,27.7,191.1,27.8,191.2,27.8z M193,29.5
			c0.1,0.1,0.1,0.2,0.2,0.3c-0.2-0.3-0.4-0.5-0.4-0.5C192.9,29.4,192.9,29.4,193,29.5z M193.8,30.8c0,0,0-0.1-0.1-0.1
			c0-0.1,0.1,0,0.2,0.2L193.8,30.8z M188.4,26c-0.2-0.1-0.4-0.2-0.6-0.3c0.1,0,0.1,0,0.2,0.1C188.3,25.9,188.4,25.9,188.4,26z
			 M185,24.5c0.4,0.2,0.7,0,1,0.3l-0.2,0.1c0.3,0.1,1.1,0.4,1.4,0.5c0,0,0,0,0,0c-0.7-0.2-1.4-0.4-2.1-0.6
			C185.1,24.8,184.6,24.5,185,24.5z M184.9,24.8c-0.3-0.1-0.7-0.1-1.1-0.1c0,0,0,0,0,0C184.1,24.5,184.8,24.7,184.9,24.8z
			 M170.9,36.1c0,0.2,0,0.4,0,0.6C170.8,36.6,170.8,36.5,170.9,36.1z M170.8,37.4C170.8,37.3,170.8,37.3,170.8,37.4c0,0,0,0.1,0,0.1
			C170.9,37.5,170.8,37.4,170.8,37.4z M183.8,49.9C183.8,49.9,183.8,49.9,183.8,49.9c0.1,0,0.1,0,0.1,0.1c-0.3,0.2-0.8-0.1-1.1-0.1
			c0,0,0.1,0,0.1,0c0.2,0,0.4,0,0.5,0C183.6,49.9,183.7,49.9,183.8,49.9z M188.7,48.4c0.1-0.1,0.3-0.1,0.4-0.2l0,0.3
			C188.8,48.7,188.7,48.6,188.7,48.4z M192.9,44.9c-0.8,1.3-2,2.3-3,3l0.1,0c-0.2,0.2-0.8,0.5-0.9,0.4c2.6-1.5,4.4-4,5.3-6.9
			C194.1,42.5,193.6,43.8,192.9,44.9z M194.6,40.7c0.2-0.9,0.4-1.8,0.4-2.7c0.1,0.4,0.2-0.2,0.3,0.1
			C194.7,38.7,195.5,40.2,194.6,40.7z"/>
		<path class="st0" d="M187.8,49.4C187.8,49.4,187.8,49.5,187.8,49.4c-0.2,0.1-0.7,0.3-1.1,0.4c0.6-0.1,1.2-0.2,1.7-0.4
			C188.3,49.4,188.1,49.3,187.8,49.4z"/>
	</g>
	<path class="st1" d="M210.3,15.6h17.6c10.3,0,16.5,6.1,16.5,14.9v0.1c0,10-7.7,15.1-17.4,15.1h-7.2v12.9h-9.5V15.6z M227.2,37.3
		c4.7,0,7.5-2.8,7.5-6.5v-0.1c0-4.2-2.9-6.5-7.7-6.5h-7.3v13.1H227.2z"/>
	<path class="st1" d="M88.5,16l19.3,7.9v0.4H88.5V16z"/>
</g>
</svg>
